<?xml version="1.0" encoding="UTF-8"?>
<svg id="Layer_2" xmlns="http://www.w3.org/2000/svg" viewBox="0 0 58.96 43.29">
  <defs>
    <style>
      .cls-1 {
        fill: #514d4c;
      }
    </style>
  </defs>
  <g id="Layer_1-2" data-name="Layer_1">
    <path class="cls-1" d="M13.58,43.29c-8.21,0-13.58-6.57-13.58-16.42C0,12.24,9.26,1.49,22.99,0v8.21c-7.31,1.34-12.24,5.37-12.24,11.49,1.19-.6,2.69-.9,4.33-.9,6.27,0,11.05,4.48,11.05,11.79s-5.08,12.69-12.54,12.69ZM46.43,43.29c-8.21,0-13.58-6.57-13.58-16.42,0-14.63,9.26-25.38,22.99-26.87v8.21c-7.31,1.34-12.24,5.37-12.24,11.49,1.19-.6,2.69-.9,4.33-.9,6.27,0,11.05,4.48,11.05,11.79s-5.08,12.69-12.54,12.69Z"/>
  </g>
</svg>