<svg data-name="Layer 1" xmlns="http://www.w3.org/2000/svg" viewbox="0 0 87 68">
  <g>
    <path d="M17.35,50.79a5.92,5.92,0,0,0,3.13-2.92A7.23,7.23,0,0,0,21,43.65a7.71,7.71,0,0,0-3.29-5.3,11.59,11.59,0,0,0-6.47-1.79H.9V67.17H11.21A12.9,12.9,0,0,0,18.91,65a8.75,8.75,0,0,0,3.45-7.4,8,8,0,0,0-1.16-3.7A6.73,6.73,0,0,0,17.35,50.79Zm-9.2-5.08V43.09H11.1a2.63,2.63,0,0,1,2.79,2.62A2.59,2.59,0,0,1,11,48.34H8.15ZM11.1,60.38H8.15V54H11.1c2.45,0,3.68,1.6,3.68,3.24S13.56,60.38,11.1,60.38Z" style="fill: #0a0a0a"/>
    <polygon points="71.12 36.57 65.05 45.38 58.98 36.57 49.72 36.57 60.58 51.91 49.72 67.24 58.98 67.24 65.05 58.43 71.12 67.24 80.38 67.24 69.56 51.91 80.38 36.57 71.12 36.57" style="fill: #0a0a0a"/>
    <path d="M49.24,40.75a15.56,15.56,0,0,0-10.83-4.24A15,15,0,0,0,23,52a15,15,0,0,0,4.57,11.17,15.45,15.45,0,0,0,10.87,4.2,15.39,15.39,0,0,0,10.83-4.2A15.18,15.18,0,0,0,53.81,52,15.37,15.37,0,0,0,49.24,40.75ZM43.71,58.6a7.73,7.73,0,0,1-5.3,1.89,7.62,7.62,0,0,1-5.29-2.11A8.53,8.53,0,0,1,30.66,52,8.81,8.81,0,0,1,33,45.49a7.53,7.53,0,0,1,5.36-2.13,8,8,0,0,1,5.34,2A8.73,8.73,0,0,1,46.15,52C46.15,55.14,45.17,57.27,43.71,58.6Z" style="fill: #0a0a0a"/>
    <polygon points="32.35 31.92 32.35 16.51 32.35 1.12 28.46 1.12 24.55 1.12 24.55 16.51 24.55 31.92 28.46 31.92 32.35 31.92" style="fill: #0a0a0a"/>
    <polygon points="44.11 31.85 50.18 23.04 56.25 31.85 65.51 31.85 54.67 16.51 65.51 1.17 56.25 1.17 50.18 9.99 44.11 1.17 34.87 1.17 45.69 16.51 34.87 31.85 44.11 31.85" style="fill: #0a0a0a"/>
    <polygon points="75.78 24.82 75.78 13 75.78 1.17 71.84 1.17 67.94 1.17 67.94 16.52 67.94 31.85 76.92 31.85 85.9 31.85 85.9 28.36 85.9 24.82 80.85 24.82 75.78 24.82" style="fill: #0a0a0a"/>
    <path d="M11.11,1.17H.9V31.85H8.62V23.19h2.54a11.67,11.67,0,0,0,8.65-3.39,11,11,0,0,0,3-7.47A10.88,10.88,0,0,0,20,4.69,11.81,11.81,0,0,0,11.11,1.17ZM14.2,15.51A3.79,3.79,0,0,1,11.11,17H8.49V7.7h2.62a3.93,3.93,0,0,1,3.17,1.46,5.13,5.13,0,0,1,1,3.21A5.09,5.09,0,0,1,14.2,15.51Z" style="fill: #0a0a0a"/>
  </g>
</svg>
